#!OML:ASF F:\VICON\USERDATA\INSTALL\Justin_Nancy\Justin_Nancy.ASF
:FULLY-SPECIFIED
:DEGREES
256
root 16.2185 17.1736 9.32753 291.296 84.9557 289.083
lowerback 6.17699 2.08348 3.50697
upperback 0.352892 3.14834 2.52574
thorax -3.05309 1.55388 0.366965
lowerneck -17.5033 -4.59775 -10.2688
upperneck 21.6153 -4.84667 6.14142
head 10.2086 -2.30942 3.21704
rclavicle 2.76311e-014 1.98785e-015
rhumerus -24.1149 -4.41454 -79.7051
rradius 37.4696
rwrist 1.20382
rhand -18.7382 11.6392
rfingers 7.12502
rthumb 7.55781 -18.2058
lclavicle 2.76311e-014 1.98785e-015
lhumerus -33.2893 8.41519 85.5978
lradius 27.7188
lwrist -6.13751
lhand -16.2158 26.5047
lfingers 7.12502
lthumb 9.99195 56.2475
rfemur 5.07726 8.45812 30.2052
rtibia 22.3115
rfoot -19.1378 -7.72782
rtoes 0.669526
lfemur -34.775 1.26174 -18.9504
ltibia 27.1891
lfoot -10.0926 7.35558
ltoes -11.0548
257
root 16.445 17.1611 9.32396 295.069 85.0927 292.64
lowerback 5.86045 2.12999 3.33342
upperback 0.282908 3.18035 2.48909
thorax -2.95456 1.57182 0.434757
lowerneck -17.5243 -4.55491 -10.2859
upperneck 21.7429 -4.78989 6.17954
head 10.2546 -2.27974 3.24411
rclavicle -3.79182e-014 -2.3059e-014
rhumerus -24.021 -3.93448 -79.6543
rradius 37.8137
rwrist 0.591814
rhand -18.4181 11.9854
rfingers 7.12502
rthumb 7.86683 -17.8483
lclavicle -3.79182e-014 -2.3059e-014
lhumerus -33.47 9.13386 85.4044
lradius 27.3985
lwrist -7.3848
lhand -16.1712 27.0599
lfingers 7.12502
lthumb 10.035 56.8006
rfemur 5.84669 7.97075 29.8126
rtibia 21.8588
rfoot -18.7932 -7.55038
rtoes -3.26655
lfemur -34.7192 -1.94351 -17.7499
ltibia 24.6413
lfoot -10.7108 10.3098
ltoes -9.85118
258
root 16.67 17.1466 9.32069 296.183 85.5783 293.596
lowerback 5.56995 1.91593 2.92833
upperback 0.273917 2.85189 2.47639
thorax -2.82442 1.41441 0.684236
lowerneck -17.8231 -4.43768 -10.716
upperneck 21.9919 -4.57142 6.56056
head 10.4015 -2.16807 3.48847
rclavicle 4.27884e-014 3.85642e-014
rhumerus -23.6648 -3.54753 -79.7236
rradius 37.8775
rwrist 0.634865
rhand -17.9291 12.3381
rfingers 7.12502
rthumb 8.33878 -17.4773
lclavicle 4.27884e-014 3.85642e-014
lhumerus -33.6319 10.845 84.9293
lradius 27.0109
lwrist -8.34374
lhand -15.6994 26.4664
lfingers 7.12502
lthumb 10.4901 56.1847
rfemur 6.62399 7.4537 29.1834
rtibia 21.5351
rfoot -18.6145 -7.14802
rtoes -5.44823
lfemur -34.8939 -4.87443 -17.0144
ltibia 22.7082
lfoot -11.4254 12.8124
ltoes -8.87491
259
root 16.9013 17.1487 9.41683 317.904 84.3854 315.889
lowerback 5.93717 2.76074 1.63085
upperback 0.435179 3.89914 2.48166
thorax -2.9411 1.95069 1.3153
lowerneck -17.4107 -4.49257 -10.175
upperneck 21.5608 -4.78214 6.32801
head 10.1665 -2.25141 3.27853
rclavicle 1.799e-014 -5.1684e-015
rhumerus -23.6005 -4.4169 -79.9985
rradius 37.9438
rwrist 1.26674
rhand -17.5733 12.3169
rfingers 7.12502
rthumb 8.68212 -17.4845
lclavicle 1.799e-014 -5.1684e-015
lhumerus -33.7455 10.7955 84.4632
lradius 26.7296
lwrist -7.99806
lhand -15.4771 26.1457
lfingers 7.12502
lthumb 10.7046 55.853
rfemur 8.28669 9.41672 29.3617
rtibia 21.3816
rfoot -18.3347 -6.37592
rtoes -4.12861
lfemur -33.9198 -6.26589 -15.1465
ltibia 21.4198
lfoot -13.7387 15.7402
ltoes 5.55772
260
root 17.1241 17.142 9.42092 319.833 84.5892 317.758
lowerback 5.85642 2.8433 1.63813
upperback 0.313724 3.9971 2.23594
thorax -3.00421 1.99463 1.05123
lowerneck -16.9344 -4.52549 -9.44386
upperneck 21.1802 -4.93774 5.78676
head 9.91961 -2.3309 2.93979
rclavicle 5.26779e-015 3.97569e-015
rhumerus -23.6093 -5.33685 -80.103
rradius 37.863
rwrist 1.7549
rhand -17.4622 12.2016
rfingers 7.12502
rthumb 8.78933 -17.5954
lclavicle 5.26779e-015 3.97569e-015
lhumerus -33.8374 10.4426 84.263
lradius 26.4619
lwrist -7.24128
lhand -15.072 26.244
lfingers 7.12502
lthumb 11.0953 55.9307
rfemur 8.95848 8.86828 28.8835
rtibia 21.3294
rfoot -18.0808 -5.19769
rtoes -4.20361
lfemur -34.0393 -6.95249 -14.9166
ltibia 20.8146
lfoot -15.8096 15.7009
ltoes 10.1416
261
root 17.3473 17.1189 9.42594 320.282 84.5612 318.164
lowerback 5.79185 2.83685 1.69394
upperback 0.211366 3.9921 2.22682
thorax -3.06929 1.99034 1.01165
lowerneck -16.9403 -4.45994 -9.26115
upperneck 21.3999 -4.87917 5.71382
head 9.98651 -2.29585 2.8951
rclavicle -3.20789e-014 -1.55052e-014
rhumerus -23.6797 -5.40651 -80.1881
rradius 37.9334
rwrist 1.73576
rhand -17.4951 12.1122
rfingers 7.12502
rthumb 8.7576 -17.6861
lclavicle -3.20789e-014 -1.55052e-014
lhumerus -34.011 11.3234 83.8487
lradius 26.0662
lwrist -7.40885
lhand -14.0751 25.6655
lfingers 7.12502
lthumb 12.0567 55.2982
rfemur 9.78648 8.66417 28.7975
rtibia 21.0646
rfoot -17.584 -4.46706
rtoes -4.96925
lfemur -34.4016 -7.64831 -14.7604
ltibia 21.3224
lfoot -16.5601 16.4797
ltoes 3.66981
262
root 17.5725 17.0948 9.45584 316.683 84.1127 314.713
lowerback 5.92788 2.8473 2.10156
upperback 0.15871 4.05014 2.40262
thorax -3.18551 2.01522 0.952162
lowerneck -17.0139 -4.43467 -9.67314
upperneck 21.6847 -4.84681 6.20811
head 10.1239 -2.25587 3.14918
rclavicle 1.14798e-014 -2.78299e-015
rhumerus -23.7855 -5.51569 -80.29
rradius 38.0414
rwrist 1.4099
rhand -17.379 12.1948
rfingers 7.12502
rthumb 8.86966 -17.5988
lclavicle 1.14798e-014 -2.78299e-015
lhumerus -34.2309 11.6125 83.5362
lradius 25.7109
lwrist -7.77667
lhand -14.3396 25.3853
lfingers 7.12502
lthumb 11.8016 55.0327
rfemur 10.8522 8.9735 29.6316
rtibia 20.9058
rfoot -16.8798 -4.43671
rtoes -5.94904
lfemur -34.6416 -2.9202 -16.2869
ltibia 22.4144
lfoot -15.0077 11.0072
ltoes 0.338082
263
root 17.8039 17.0641 9.50168 307.715 82.7981 306.123
lowerback 6.2027 2.91964 3.48227
upperback 0.236479 4.28229 2.82948
thorax -3.19398 2.11957 0.593518
lowerneck -16.7436 -4.58407 -8.96013
upperneck 21.4016 -5.17807 5.8196
head 9.96857 -2.39827 2.84279
rclavicle -2.54444e-014 -1.51076e-014
rhumerus -23.8686 -6.08718 -80.3502
rradius 38.144
rwrist 1.01879
rhand -17.2982 12.4205
rfingers 7.12502
rthumb 8.94762 -17.3698
lclavicle -2.54444e-014 -1.51076e-014
lhumerus -34.2895 10.6649 83.6994
lradius 25.5396
lwrist -7.48087
lhand -15.6747 26.4341
lfingers 7.12502
lthumb 10.514 56.1511
rfemur 12.0821 9.48115 31.8328
rtibia 20.9841
rfoot -16.037 -4.40932
rtoes -6.72119
lfemur -34.7248 0.0305565 -15.6527
ltibia 23.9232
lfoot -13.5706 6.74603
ltoes -0.426095
264
root 18.0417 17.0241 9.52678 300.59 81.3556 299.411
lowerback 6.53488 2.87183 5.10056
upperback 0.244919 4.39479 3.28875
thorax -3.2889 2.16071 0.144551
lowerneck -16.9051 -4.50479 -8.92992
upperneck 21.9103 -5.10361 5.96983
head 10.1777 -2.33795 2.90787
rclavicle 2.15681e-014 -1.59028e-015
rhumerus -24.0686 -6.57105 -80.3312
rradius 38.0957
rwrist 0.961209
rhand -17.3775 12.6245
rfingers 7.12502
rthumb 8.87103 -17.1691
lclavicle 2.15681e-014 -1.59028e-015
lhumerus -34.514 10.7823 83.4856
lradius 25.2802
lwrist -7.38315
lhand -15.6761 26.5547
lfingers 7.12502
lthumb 10.5126 56.2718
rfemur 13.1717 9.78345 33.9409
rtibia 21.3727
rfoot -15.2333 -3.72849
rtoes -4.56263
lfemur -34.676 1.1545 -14.3225
ltibia 25.6206
lfoot -12.3671 4.84606
ltoes -9.27128
265
root 18.2787 16.9942 9.54357 297.818 81.305 296.994
lowerback 6.74791 2.74306 5.13759
upperback 0.234383 4.25818 3.49096
thorax -3.43724 2.09334 0.331843
lowerneck -16.9161 -4.4212 -8.74345
upperneck 22.2841 -4.98903 5.77248
head 10.294 -2.28881 2.82828
rclavicle -7.77745e-015 -5.96354e-015
rhumerus -24.3736 -6.91243 -80.2026
rradius 38.0986
rwrist 1.42025
rhand -17.9509 12.2379
rfingers 7.12502
rthumb 8.31771 -17.5783
lclavicle -7.77745e-015 -5.96354e-015
lhumerus -34.7023 11.3218 83.2891
lradius 24.8756
lwrist -7.14443
lhand -14.3132 25.8559
lfingers 7.12502
lthumb 11.8271 55.502
rfemur 13.8116 9.22732 34.2147
rtibia 22.2921
rfoot -14.3868 -3.23925
rtoes -5.64571
lfemur -34.4662 2.46926 -14.984
ltibia 27.0275
lfoot -11.8496 2.54621
ltoes -19.2675
266
root 18.515 16.9833 9.56203 297.463 81.7194 296.971
lowerback 6.84136 2.70694 4.38364
upperback 0.29962 4.16783 3.71574
thorax -3.49415 2.06416 0.984775
lowerneck -16.5853 -4.69998 -8.73334
upperneck 21.9948 -5.31631 5.41453
head 10.1449 -2.48611 2.65065
rclavicle 5.3001e-014 2.62396e-014
rhumerus -24.7448 -6.69074 -79.8697
rradius 38.3319
rwrist 1.88481
rhand -19.6425 10.404
rfingers 7.12502
rthumb 6.6849 -19.4705
lclavicle 5.3001e-014 2.62396e-014
lhumerus -34.7849 11.2611 83.743
lradius 24.5945
lwrist -6.77258
lhand -13.5895 25.8701
lfingers 7.12502
lthumb 12.5249 55.4747
rfemur 13.8952 8.27157 33.7305
rtibia 23.9934
rfoot -13.48 -2.83096
rtoes -10.6614
lfemur -33.828 3.00306 -15.8247
ltibia 27.7746
lfoot -11.5194 0.399017
ltoes -21.7849
